<?xml version="1.0" encoding="utf-8"?>
<!-- Generator: Adobe Illustrator 18.1.1, SVG Export Plug-In . SVG Version: 6.00 Build 0)  -->
<svg version="1.1" xmlns="http://www.w3.org/2000/svg" xmlns:xlink="http://www.w3.org/1999/xlink" x="0px" y="0px"
	 viewBox="0 0 146.3 85.9" enable-background="new 0 0 146.3 85.9" xml:space="preserve">
<g id="Layer_4" opacity="0.9">
	<g>
		<path id="XMLID_7_" fill="#FFFFFF" d="M72.2,52.4c0.3,0.4,1,1,2.2,1c1.1,0,1.8-0.6,2.2-1c-0.9-0.1-1.8-0.3-2.2-0.4
			C73.9,52.1,73.1,52.3,72.2,52.4z"/>
		<path id="XMLID_9_" fill="#EB8D22" d="M67.6,37.5l2.3,8.7c0.5-0.8,1.1-1.6,1.8-2.2L69,36.1L67.6,37.5z"/>
		<path id="XMLID_12_" d="M74.3,50c0.3,0,2.4-0.3,2.5-0.6c0.3-0.6,0.3-1.4,0.1-1.9c-0.2-0.5-1.6-0.8-2.6-0.8c-1,0-2.5,0.3-2.6,0.8
			c-0.2,0.5-0.2,1.4,0.1,1.9C72,49.8,74,50,74.3,50z"/>
		<path id="XMLID_22_" fill="#FFFFFF" d="M70.3,51.1c1.4,0.9,3.6,0.4,4,0.3v0c0,0,0,0,0,0c0,0,0,0,0,0v0c0.4,0.1,2.6,0.7,4-0.3
			c0.4-0.2,0.5-0.8,0.5-1.6c-0.2-2.2-1.4-5-4.5-6.6c-3,1.6-4.3,4.4-4.5,6.6C69.8,50.2,70,50.8,70.3,51.1z M71.1,47.3
			c0.3-1.1,2.5-1.2,3.2-1.3v0c0,0,0,0,0,0c0,0,0,0,0,0v0c0.7,0,2.9,0.2,3.2,1.3c0.2,0.7,0.3,1.7-0.1,2.4c-0.3,0.4-0.7,0.7-1.2,0.9
			c-1.3,0.3-1.6,0.4-1.7,0.4h-0.4c0,0-0.3-0.1-1.7-0.4c-0.5-0.1-0.9-0.4-1.2-0.9C70.8,49,70.9,48,71.1,47.3z"/>
		<path fill="#FFFFFF" d="M86.2,46.7c0.8-0.1,1.5-0.3,2.3-0.3c1,0,1.9,0.1,2.9,0.2c0-0.1,0.1-0.1,0.1-0.2c-3-0.4-8-0.3-11.5,3.5
			c0,0.9-0.2,1.6-0.8,2c-0.6,0.4-1.3,0.5-2,0.5l0,0c0,0.1-0.9,1.5-2.9,1.6v0c0,0,0,0,0,0c0,0,0,0,0,0v0c-2-0.1-2.9-1.5-2.9-1.6l0,0
			c-0.7,0-1.4-0.2-2-0.5c-0.5-0.4-0.8-1.1-0.8-2c-0.9-0.9-1.8-1.6-2.8-2.1c0.2,0.1,0.3,0.2,0.4,0.4c0.7,0.3,1.3,1.2,1.6,1.9
			c0.1,0.2,0.2,0.4,0.3,0.6c0.1,0.2,0.3,0.4,0.4,0.6c0.1,0.2,0.2,0.4,0.4,0.6c0,0.1,0.1,0.1,0.1,0.2c0.1,0.1,0.2,0.1,0.2,0.2
			c0.1,0.1,0.3,0.2,0.4,0.3c0,0,0.1,0,0.1,0c0.9,0.2,1.9,0.3,2.6,1c0.1,0.2,0.3,0.3,0.4,0.5c0.7,0.1,1.5,0.1,2.2,0.1
			c0.1-0.1,0.1-0.2,0.3-0.2c0.6-0.2,1.1-0.5,1.7-0.8c0.5-0.2,1-0.4,1.5-0.6c0.5-0.2,0.9-0.4,1.2-0.9c0.3-0.4,0.3-0.8,0.4-1.3
			c0.3-1.6,2.1-2.2,3.4-2.7c0.3-0.1,0.6-0.2,1-0.3C85,47,85.6,46.8,86.2,46.7z"/>
		<path fill="#FFFFFF" d="M59,46.2c0.2,0,0.5,0.1,0.7,0.2c0.3,0,0.6,0.1,0.9,0.2c0.3,0.1,0.6,0.2,1,0.2c0.5,0,0.9,0,1.4,0
			c0.8,0.1,1.5,0.3,2.2,0.6c0,0,0,0,0,0c-2.2-1-4.5-1.3-6.4-1.2c0,0,0,0,0,0C59,46.2,59,46.2,59,46.2z"/>
		<path id="XMLID_25_" fill="#FFFFFF" d="M68.8,49c0-0.2,0.1-0.4,0.1-0.6l0,0c-3.6-5.7-6.9-7.9-10.5-9.5c-1.9-0.8-3.9-1.3-5.4-1.5
			l2.1,7.1c1-0.1,2.5-0.1,4.1,0.1C62,45,65.9,46.1,68.8,49z"/>
		<path id="XMLID_27_" fill="#EB8D22" d="M78.8,46.2l2.3-8.7l-1.4-1.4l-2.8,7.8C77.7,44.6,78.3,45.4,78.8,46.2z"/>
		<path id="XMLID_28_" fill="#FFFFFF" d="M79.8,48.5L79.8,48.5c0,0.2,0.1,0.4,0.1,0.6c2.9-3,6.8-4,9.6-4.3c1.6-0.2,3.1-0.2,4.1-0.1
			l2.1-7.1c-1.5,0.2-3.4,0.7-5.4,1.5C86.7,40.6,83.4,42.7,79.8,48.5z"/>
		<path id="XMLID_29_" fill="#EB8D22" d="M69.6,35.6l2.6,7.9c0.6-0.5,1.4-1,2.1-1.4v0c0,0,0,0,0,0c0,0,0,0,0,0v0
			c0.8,0.4,1.5,0.8,2.1,1.4l2.6-7.9c-2.1-0.7-4-2.4-4.7-3.1C73.6,33.2,71.7,34.9,69.6,35.6z"/>
		<path id="XMLID_30_" fill="#EB8D22" d="M94,16.6c0.4-3.9,0.5-8.8-1.9-14.3C87.7,9.1,90,14.7,90,14.7l-1.4-1.5
			c0,2.6,1.1,5.9,1.1,5.9c0.7,1,1.7,2.4,2.8,4.2C92.9,22.3,93.7,20,94,16.6z"/>
		<path id="XMLID_31_" fill="#FFFFFF" d="M67.6,31.9c-0.1-0.1-0.3-0.3-0.4-0.4C67,31.6,67,31.7,67,31.8c0,0.2,0.1,0.3,0.3,0.3
			C67.4,32.1,67.6,32,67.6,31.9z"/>
		<path id="XMLID_45_" fill="#FFFFFF" d="M65.9,32.9c-0.8-0.5-1-1.4-1.1-1.9c-0.1,0-0.2,0-0.3,0.1c0.1,0.5,0.5,1.9,1.7,2.1
			c1.4,0.3,2.1-0.2,2.3-0.3c0,0,0-0.1-0.1-0.1c-0.3,0.1-0.8,0.3-1.4,0.3C66.6,33.2,66.2,33.2,65.9,32.9z"/>
		<rect id="XMLID_46_" x="84.8" y="31.4" fill="#EB8D22" width="0" height="0"/>
		<path id="XMLID_50_" fill="#EB8D22" d="M58.7,14.7c0,0,2.3-5.6-2.1-12.3c-2.4,5.5-2.3,10.4-1.9,14.3c0.3,3.3,1.1,5.6,1.5,6.6
			c1.1-1.8,2.1-3.2,2.8-4.2c0,0,1.1-3.3,1.1-5.9L58.7,14.7z"/>
		<rect id="XMLID_51_" x="63.9" y="31.4" fill="#EB8D22" width="0" height="0"/>
		<path id="XMLID_52_" fill="#FFFFFF" d="M81.7,31.8c0-0.1-0.1-0.2-0.2-0.3c-0.2,0.1-0.3,0.2-0.4,0.4c0,0.1,0.2,0.2,0.3,0.2
			C81.6,32.1,81.7,32,81.7,31.8z"/>
		<path id="XMLID_53_" fill="#EB8D22" d="M89.5,18.8c0.1,0.1,0.1,0.2,0.2,0.3c-2.5-3.7-2.2-8.2-2.2-8.2l0.9,0.9
			c-1-4.2,3.2-10.5,3.2-10.5C90,2,83.3,5.7,79.3,11l-0.1,0.1l-0.1,0c0.4,1,1.1,2.6,1.6,3.4c0.6,1.1,2.7,3.8,2.7,3.8
			c-0.1-0.1-2.5-2.4-3.2-3.5c-0.5-0.8-1.5-2.6-1.9-3.5l-3.9,0.9v0l0,0l0,0v0l-3.9-0.9c-0.5,0.9-1.4,2.7-1.9,3.5
			c-0.7,1.1-3.1,3.4-3.2,3.5c0,0,2-2.7,2.7-3.8c0.5-0.7,1.2-2.4,1.6-3.4l-0.1,0L69.4,11c-4-5.3-10.7-9-12.2-9.7
			c0,0,4.2,6.4,3.2,10.5l0.9-0.9c0,0,0.3,4.5-2.2,8.2c0.1-0.1,0.1-0.2,0.2-0.3l-1.3,3c-2,3.1-4.9,7.6-6.2,13.6
			c1.4,0.3,3.3,0.8,5.6,1.7c3.6,1.6,8.6,4.7,11.9,10.6c0.1-0.3,0.2-0.6,0.4-0.9L66.8,38c-0.9,0.5-2.7,1.5-2.7,1.5
			c0.6-1,1.8-1.7,2.5-2.1c-0.1,0-0.1,0-0.2,0c-1.6,0-2.9-0.5-3.8-1.3c-1.6-1.6-1.2-4.2-1.2-4.3c0,0,0,0.1,0,0.2
			c0.1,0.8,0.9,3.9,4.3,3.7c2-0.1,2.6-1.2,2.8-2.2c0,0,0,0,0-0.1c-0.3,0.2-0.9,0.5-1.8,0.5c-0.3,0-0.6,0-0.9-0.1
			c-1-0.2-1.5-1-1.8-1.7l-3.3-1.6l0.7-0.3c2.5-0.9,4.5-0.8,6.1,0.1c1.1,0.6,1.7,1.6,2.1,2.5l-0.3-3.3l1.2,4.3c1.6-0.7,2.9-1.6,3.3-2
			l0.2-2.9l0.1,0.7l0.1-0.7l0.2,2.9c0.4,0.4,1.7,1.3,3.3,2l1.2-4.3L78.9,33c0.4-0.9,1.1-1.8,2.1-2.5c1.6-1,3.6-1,6.1-0.1l0.7,0.3
			l-3.3,1.6c-0.3,0.7-0.8,1.5-1.8,1.7c-0.3,0.1-0.6,0.1-0.9,0.1c-1,0-1.6-0.3-1.8-0.5c0,0,0,0,0,0.1c0.2,1,0.8,2,2.8,2.2
			c3.5,0.2,4.2-2.8,4.3-3.7c0-0.1,0-0.2,0-0.2c0,0.1,0.4,2.6-1.2,4.3c-0.9,0.9-2.1,1.3-3.8,1.3c-0.1,0-0.1,0-0.2,0
			c0.7,0.4,1.9,1.1,2.5,2.1c0,0-1.8-1-2.7-1.5l-2.7,8.8c0.2,0.3,0.3,0.6,0.4,0.9c3.3-5.9,8.2-9,11.9-10.6c2.2-1,4.2-1.5,5.6-1.7
			c-1.3-6-4.3-10.5-6.2-13.6L89.5,18.8z"/>
		<path id="XMLID_54_" fill="#FFFFFF" d="M80.3,33c0.2,0.1,0.9,0.6,2.3,0.3c1.1-0.3,1.5-1.6,1.7-2.1c-0.1,0-0.2-0.1-0.3-0.1
			c0,0.5-0.2,1.4-1.1,1.9c-0.3,0.2-0.7,0.3-1.1,0.3C81.2,33.2,80.6,33,80.3,33C80.3,32.9,80.3,32.9,80.3,33z"/>
		<path id="XMLID_4_" fill="#D57128" d="M60.8,30.6l2.8,1.9c0,0,0.3,1.1,1.6,1.8c0,0-2.7,0.3-3.7-2.3c0,0-1.1,4.3,2.2,6l-0.9,1.8
			l3.2-0.4l3.7,7.5l-2.1-8l1-0.9l3.4,6.1L70,36.7c0,0,2.9-1.4,4.4-3.8v-2.8l-0.8-5.7c0,0-0.6,6.5-0.7,6.6c-0.1,0.1-1.4,1-1.5,1
			s-2.3-4.8-2.3-4.8l0.1,4.7l-0.9,1.5l-1,0.1l-1.5-0.2l-1.5-1.9L60.8,30.6z"/>
		<path id="XMLID_6_" fill="#D57128" d="M51.2,33.8c0,0,10.5,1.8,17.2,10.3l0.2-0.2l1.2,3l-0.7,1.1l-4.5-5.7L58,38.1l-7.8-2.8
			L51.2,33.8z"/>
		<path id="XMLID_3_" fill="#D57128" d="M56.2,23.7c0,0,2.8-4.1,3.8-7c1-2.9,0.5-4.5,0.5-4.5s-0.9,0.6-1,0.6
			c-0.1,0,0.3-9.1-2.9-10.6C56.7,2.2,50.9,9.9,56.2,23.7z"/>
		<path id="XMLID_10_" fill="#D57128" d="M62.4,3.8c0,0,3.8,3.9,4.1,7.2c0.3,3.3-2.8,8.9-2.8,8.9s5.5-3.2,7.5-8.7l-1.5-0.7
			C69.7,10.6,64.2,4.8,62.4,3.8z"/>
		<path id="XMLID_14_" fill="#C6C6C6" d="M74.3,53.5v-1.8v-1.2c0,0-2.5,0.8-3.6-0.4c-1.2-1.2,0.3-4.2,0.3-4.2s-1.9,2.5-1.5,4.1
			c0.4,1.6,2.2,2.1,2.2,2.1S72.3,53.5,74.3,53.5z"/>
		<path d="M99.1,35.3c-1.8-4-3.9-7.6-5.7-10.5c0.3-0.9,1.2-3.8,1.6-7.6c0.4-4.3,0.2-10.7-2.9-16.9L92,0l-0.3,0.1
			c-0.1,0-8.6,4.1-13.1,10.1l-4.2,1.3l-4.2-1.3C65.5,4.3,57,0.2,57,0.1L56.7,0l-0.1,0.3c-3.1,6.2-3.3,12.6-2.9,16.9
			c0.4,3.9,1.3,6.8,1.6,7.6c-1.8,2.9-3.9,6.5-5.7,10.5l-0.1,0.1l0.7,1.8l0.9,0.1l2.1,8l0,0c0,0,0.5,0.6,1.3,1.6l0.8-0.2c0,0,0,0,0,0
			c0.7-0.3,1.5-0.3,2.2-0.5c0.4-0.1,0.9-0.2,1.3,0c1.9-0.1,4.2,0.2,6.4,1.2c0.2,0.1,0.4,0.2,0.6,0.3c1,0.5,1.9,1.2,2.8,2.1
			c0,0.9,0.2,1.6,0.8,2c0.6,0.4,1.3,0.5,2,0.5l0,0c0,0.1,0.9,1.5,2.9,1.6v0c0,0,0,0,0,0c0,0,0,0,0,0v0c2-0.1,2.9-1.5,2.9-1.6l0,0
			c0.7,0,1.4-0.2,2-0.5c0.5-0.4,0.8-1.1,0.8-2c3.5-3.8,8.5-3.9,11.5-3.5c0,0.1-0.1,0.1-0.1,0.2c0.6,0.1,1.2,0.2,1.8,0.3
			c0-0.1,0.1-0.1,0.1-0.2l0.8,0.2c0.8-1,1.3-1.6,1.3-1.6l0,0l2.1-8l0.9-0.1l0.7-1.8L99.1,35.3z M68.8,49c-2.9-3-6.8-4-9.6-4.3
			c-1.6-0.2-3.1-0.2-4.1-0.1L53,37.5c1.5,0.2,3.4,0.7,5.4,1.5c3.6,1.6,6.9,3.7,10.5,9.5l0,0C68.8,48.7,68.8,48.8,68.8,49z
			 M74.3,53.4c-1.1,0-1.8-0.6-2.2-1c0.9-0.1,1.8-0.3,2.2-0.4c0.4,0.1,1.2,0.3,2.2,0.4C76.2,52.7,75.5,53.3,74.3,53.4z M78.3,51.1
			c-1.4,0.9-3.6,0.4-4,0.3v0c0,0,0,0,0,0c0,0,0,0,0,0v0c-0.4,0.1-2.6,0.7-4-0.3c-0.4-0.2-0.5-0.8-0.5-1.6c0.2-2.2,1.4-5,4.5-6.6
			c3,1.6,4.3,4.4,4.5,6.6C78.9,50.2,78.7,50.8,78.3,51.1z M76.5,43.5c-0.6-0.5-1.4-1-2.1-1.4v0c0,0,0,0,0,0c0,0,0,0,0,0v0
			c-0.8,0.4-1.5,0.8-2.1,1.4l-2.6-7.9c2.1-0.7,4-2.4,4.7-3.1c0.7,0.7,2.6,2.4,4.7,3.1L76.5,43.5z M79.7,36.1l1.4,1.4l-2.3,8.7
			c-0.5-0.8-1.1-1.6-1.8-2.2L79.7,36.1z M71.7,43.9c-0.7,0.7-1.4,1.5-1.8,2.2l-2.3-8.7l1.4-1.4L71.7,43.9z M93.6,44.6
			c-1-0.1-2.5-0.1-4.1,0.1c-2.8,0.3-6.7,1.3-9.6,4.3c0-0.2-0.1-0.4-0.1-0.6l0,0c3.6-5.7,6.9-7.9,10.5-9.5c1.9-0.8,3.9-1.3,5.4-1.5
			L93.6,44.6z M91.4,37.1c-3.6,1.6-8.6,4.7-11.9,10.6c-0.1-0.3-0.2-0.6-0.4-0.9l2.7-8.8c0.9,0.5,2.7,1.5,2.7,1.5
			c-0.6-1-1.8-1.7-2.5-2.1c0.1,0,0.1,0,0.2,0c1.6,0,2.9-0.5,3.8-1.3c1.6-1.6,1.2-4.2,1.2-4.3c0,0,0,0.1,0,0.2
			c-0.1,0.8-0.9,3.9-4.3,3.7c-2-0.1-2.6-1.2-2.8-2.2c0,0,0,0,0-0.1c0.3,0.2,0.9,0.5,1.8,0.5c0.3,0,0.6,0,0.9-0.1
			c1-0.2,1.5-1,1.8-1.7l3.3-1.6l-0.7-0.3c-2.5-0.9-4.5-0.8-6.1,0.1c-1.1,0.6-1.7,1.6-2.1,2.5l0.3-3.3L78,34c-1.6-0.7-2.9-1.6-3.3-2
			l-0.2-2.9l-0.1,0.7l-0.1-0.7L74,32c-0.4,0.4-1.7,1.3-3.3,2l-1.2-4.3l0.3,3.3c-0.4-0.9-1.1-1.8-2.1-2.5c-1.6-1-3.6-1-6.1-0.1
			l-0.7,0.3l3.3,1.6c0.3,0.7,0.8,1.5,1.8,1.7c0.3,0.1,0.6,0.1,0.9,0.1c1,0,1.6-0.3,1.8-0.5c0,0,0,0,0,0.1c-0.2,1-0.8,2-2.8,2.2
			c-3.5,0.2-4.2-2.8-4.3-3.7c0-0.1,0-0.2,0-0.2c0,0.1-0.4,2.6,1.2,4.3c0.9,0.9,2.1,1.3,3.8,1.3c0.1,0,0.1,0,0.2,0
			c-0.7,0.4-1.9,1.1-2.5,2.1c0,0,1.8-1,2.7-1.5l2.7,8.8c-0.2,0.3-0.3,0.6-0.4,0.9c-3.3-5.9-8.2-9-11.9-10.6c-2.2-1-4.2-1.5-5.6-1.7
			c1.3-6,4.3-10.5,6.2-13.6l1.3-3c-0.1,0.1-0.1,0.2-0.2,0.3c-0.7,1-1.7,2.4-2.8,4.2c-0.4-1-1.2-3.3-1.5-6.6
			c-0.4-3.9-0.5-8.8,1.9-14.3c4.4,6.8,2.1,12.3,2.1,12.3l1.4-1.5c0,2.6-1.1,5.9-1.1,5.9c2.5-3.7,2.2-8.2,2.2-8.2l-0.9,0.9
			c1-4.2-3.2-10.5-3.2-10.5C58.6,2,65.4,5.7,69.4,11l0.1,0.1l0.1,0c-0.4,1-1.1,2.6-1.6,3.4c-0.6,1.1-2.7,3.8-2.7,3.8
			c0.1-0.1,2.5-2.4,3.2-3.5c0.5-0.8,1.5-2.6,1.9-3.5l3.9,0.9v0l0,0l0,0v0l3.9-0.9c0.5,0.9,1.4,2.7,1.9,3.5c0.7,1.1,3.1,3.4,3.2,3.5
			c0,0-2-2.7-2.7-3.8c-0.5-0.7-1.2-2.4-1.6-3.4l0.1,0l0.1-0.1c4-5.3,10.7-9,12.2-9.7c0,0-4.2,6.4-3.2,10.5l-0.9-0.9
			c0,0-0.3,4.5,2.2,8.2c0,0-1.1-3.3-1.1-5.9l1.4,1.5c0,0-2.3-5.6,2.1-12.3c2.4,5.5,2.3,10.4,1.9,14.3c-0.3,3.3-1.1,5.6-1.5,6.6
			c-1.1-1.8-2.1-3.2-2.8-4.2c-0.1-0.1-0.1-0.2-0.2-0.3l1.3,3c2,3.1,4.9,7.6,6.2,13.6C95.6,35.7,93.6,36.2,91.4,37.1z M81.7,33.2
			c0.4,0,0.7-0.1,1.1-0.3c0.8-0.5,1-1.4,1.1-1.9c0.1,0,0.2,0,0.3,0.1c-0.1,0.5-0.5,1.9-1.7,2.1c-1.4,0.3-2.1-0.2-2.3-0.3
			c0,0,0-0.1,0.1-0.1C80.6,33,81.2,33.2,81.7,33.2z M81.1,31.9c0.1-0.1,0.3-0.3,0.4-0.4c0.1,0.1,0.2,0.2,0.2,0.3
			c0,0.2-0.1,0.3-0.3,0.3C81.2,32.1,81.1,32,81.1,31.9z M68.4,32.9C68.4,32.9,68.4,32.9,68.4,32.9c-0.1,0.2-0.9,0.7-2.2,0.4
			c-1.1-0.3-1.5-1.6-1.7-2.1c0.1,0,0.2-0.1,0.3-0.1c0,0.5,0.2,1.4,1.1,1.9c0.3,0.2,0.7,0.3,1.1,0.3C67.5,33.2,68,33,68.4,32.9z
			 M67,31.8c0-0.1,0.1-0.2,0.2-0.3c0.2,0.1,0.3,0.2,0.4,0.4c0,0.1-0.2,0.2-0.3,0.2C67.1,32.1,67,32,67,31.8z"/>
		<rect id="XMLID_68_" x="84.8" y="31.4" width="0" height="0"/>
		<rect id="XMLID_71_" x="63.9" y="31.4" width="0" height="0"/>
		<path id="XMLID_74_" d="M72.5,50.6c1.3,0.3,1.6,0.4,1.7,0.4h0.4c0,0,0.3-0.1,1.7-0.4c0.5-0.1,0.9-0.4,1.2-0.9
			c0.4-0.7,0.4-1.7,0.1-2.4c-0.3-1.1-2.5-1.2-3.2-1.3v0c0,0,0,0,0,0c0,0,0,0,0,0v0c-0.7,0-2.9,0.2-3.2,1.3c-0.2,0.7-0.3,1.7,0.1,2.4
			C71.5,50.2,71.9,50.5,72.5,50.6z M71.7,47.5c0.2-0.5,1.6-0.8,2.6-0.8c1,0,2.5,0.3,2.6,0.8c0.2,0.5,0.2,1.4-0.1,1.9
			c-0.2,0.3-2.2,0.5-2.5,0.6c-0.3,0-2.4-0.3-2.5-0.6C71.5,48.9,71.6,48.1,71.7,47.5z"/>
	</g>
</g>
<g id="Layer_1">
	<path fill="#472302" d="M0,50.9c1.4-0.6,2.6-0.9,3.6-0.9s1.9,0.1,2.7,0.3s1.6,0.5,2.4,1c0.8,0.4,1.6,1,2.3,1.7
		c1.4,1.3,2.5,2.7,3.5,4.4l7.3,13.6l10.5-18.1h0.3l3.8,21.4c0.6,3.3,1.6,5.9,3,7.8c1.4,2,3.4,2.9,5.9,2.9c0.2,0,0.3,0,0.5,0v0.4
		c-1.3,0.4-2.6,0.5-3.9,0.5c-2.6,0-5-1-7.2-3.1c-2.1-2-3.5-4.8-4.3-8.6l-1.8-10.6l-6.8,11.8c-0.9,1.5-1.4,2.9-1.4,4H20l-9.1-17.2
		L9.2,76.9c-0.1,0.6,0.2,1,0.7,1.3c0.2,0.1,0.4,0.2,0.7,0.2h0.6v0.3H3.6v-0.4h0.6c0.6,0,1.2-0.2,1.7-0.6c0.5-0.4,0.8-0.9,0.9-1.5
		L9.2,59c-1.1-1.9-2.3-3.7-3.7-5.2c-1.6-1.7-3.2-2.5-4.9-2.5c-0.2,0-0.3,0-0.5,0L0,50.9z"/>
	<path fill="#472302" d="M46.4,66.4c0.2,0.7,0.8,1,1.5,1c0.9,0,1.6-0.5,2.1-1.5c0.4-0.7,0.6-1.5,0.6-2.6c0-1.5-0.4-2.7-1.1-3.4
		c-0.5-0.5-1.2-0.8-2.1-0.8c-0.2,0-0.4,0-0.6,0l-1.5,0.2V74c0,0.4,0.1,0.8,0.4,1.1c0.3,0.3,0.6,0.4,1,0.4h0.3v0.2h-6.7v-0.2h0.3
		c0.4,0,0.7-0.1,1-0.4c0.3-0.3,0.4-0.7,0.4-1.1V60.8c0-0.4-0.1-0.8-0.3-1c-0.2-0.2-0.5-0.4-0.9-0.4c-0.1,0-0.2,0-0.4,0l0-0.2
		c1.2-0.1,2.6-0.3,3.9-0.6c1.4-0.3,2.3-0.4,2.7-0.5c0.4-0.1,0.9-0.1,1.3-0.1s1,0.1,1.6,0.2c0.6,0.1,1.3,0.3,1.9,0.7
		c0.7,0.4,1.2,0.9,1.6,1.6c0.4,0.8,0.6,1.7,0.6,2.7s-0.2,1.9-0.5,2.6c-0.6,1.5-1.7,2.4-3.2,2.8c-0.4,0.1-0.7,0.1-1,0.1
		c-0.3,0-0.6,0-0.9-0.1c-0.6-0.1-1.1-0.3-1.5-0.7c-0.4-0.4-0.7-0.9-0.8-1.5L46.4,66.4z"/>
	<path fill="#472302" d="M77.5,78.2c-0.4,0-0.7,0-1.1-0.1c-1.4-0.2-2.6-0.8-3.6-1.6c-1-0.9-1.7-1.9-2.2-3.2
		c-1.4,0.6-2.9,0.9-4.5,0.9c-2.6,0-4.8-0.7-6.5-2.2c-1.7-1.5-2.5-3.4-2.5-5.8c0-1.6,0.4-3,1.2-4.2c0.8-1.2,1.8-2.2,3.2-2.8
		c1.4-0.7,3-1,4.8-1c1.2,0,2.3,0.1,3.4,0.3c1.1,0.2,2,0.5,2.7,0.8l0,3.8h-0.2c-0.4-1.3-1-2.3-2-3s-2.2-1-3.6-1c-1.7,0-3.1,0.7-4.2,2
		c-1.1,1.3-1.6,3-1.6,5.1c0,2.1,0.5,3.8,1.6,5.1c1.1,1.3,2.4,2,4.1,2c0.9,0,1.7-0.2,2.4-0.6c0.7-0.4,1.1-0.9,1.3-1.6v-3.3
		c0-0.3-0.1-0.6-0.3-0.7c-0.2-0.2-0.5-0.3-0.8-0.3h-0.4v-0.2h6.2v0.2h-0.3c-0.4,0-0.6,0.1-0.8,0.3c-0.2,0.2-0.3,0.4-0.3,0.7v3.5
		c0,1,0.2,1.9,0.5,2.7c0.8,1.8,2.1,2.9,3.9,3.3c0.5,0.1,1,0.2,1.5,0.2c0.5,0,1.1-0.1,1.6-0.2l0,0.2C79.8,78,78.6,78.2,77.5,78.2z"/>
	<path fill="#472302" d="M96.7,77.9c-1.6,0.8-3.2,0.9-4.9,0.4c-1.7-0.6-3.2-1.7-4.5-3.6c-0.7-1-1.3-2.1-1.7-3.4l-0.7-1.9h-5.2
		l-1.2,2.8c-0.1,0.2-0.1,0.3-0.1,0.5c0,0.1,0,0.2,0.1,0.4c0.1,0.1,0.2,0.3,0.3,0.4c0.2,0.1,0.4,0.2,0.6,0.2h0.2v0.2h-4.7v-0.2h0.2
		c0.3,0,0.7-0.1,1-0.3c0.3-0.2,0.6-0.5,0.8-0.9l4.9-11.2c-0.6-1.3-1.2-2.2-1.8-2.7c-0.5-0.4-1.1-0.6-1.5-0.6c-0.5,0-0.9,0.1-1.4,0.2
		l0-0.2c1.1-0.5,2.1-0.8,3-0.8c1.2,0,2.3,0.5,3.2,1.4c0.9,0.9,1.8,2.3,2.5,4l3.2,7.9c1.2,3,2.4,5,3.7,6.1c0.5,0.5,1,0.8,1.6,0.9
		c0.5,0.2,1,0.3,1.4,0.3c0.4,0,0.7,0,1.1-0.1L96.7,77.9z M80.1,68.5h4.5L83,64.5c-0.1-0.2-0.2-0.5-0.3-0.8c-0.1-0.4-0.2-0.6-0.3-0.8
		L80.1,68.5z"/>
	<path fill="#472302" d="M88.8,57c0.8-0.4,1.6-0.5,2.2-0.5s1.2,0.1,1.6,0.2s0.9,0.3,1.4,0.6c0.5,0.3,0.9,0.6,1.4,1
		c0.8,0.8,1.5,1.7,2.1,2.6l4.4,8.2l6.4-11h0.2l2.3,12.9c0.4,2,1,3.6,1.8,4.7c0.9,1.2,2.1,1.8,3.6,1.8c0.1,0,0.2,0,0.3,0v0.2
		c-0.8,0.2-1.6,0.3-2.4,0.3c-1.6,0-3-0.6-4.3-1.9c-1.3-1.2-2.1-2.9-2.6-5.2l-1.1-6.4l-4.1,7.2c-0.6,0.9-0.8,1.7-0.9,2.4h-0.2
		l-5.5-10.4l-1.1,8.8c0,0.3,0.1,0.6,0.4,0.8c0.1,0.1,0.3,0.1,0.4,0.1h0.4v0.2H91v-0.2h0.4c0.4,0,0.7-0.1,1-0.3
		c0.3-0.2,0.5-0.5,0.6-0.9l1.5-10.5c-0.7-1.2-1.4-2.2-2.3-3.1c-1-1-1.9-1.5-3-1.5c-0.1,0-0.2,0-0.3,0L88.8,57z"/>
	<path fill="#472302" d="M113.4,73.6c0.4,0,0.7-0.1,1-0.4c0.3-0.3,0.4-0.6,0.4-1V60c0-0.5-0.3-0.9-0.7-1.1c-0.2-0.1-0.4-0.2-0.7-0.2
		h-0.3v-0.2h6.2c0.6,0,1.2-0.1,1.7-0.2c0.5-0.1,0.8-0.2,0.9-0.2v3.8h-0.2v-0.3c0-0.7-0.2-1.2-0.6-1.6c-0.4-0.4-0.9-0.6-1.6-0.6h-1.4
		v6.4h3.5c0.5,0,1-0.2,1.3-0.6c0.4-0.4,0.5-0.8,0.5-1.3v-0.2h0.2v5.1h-0.2v-0.2c0-0.5-0.2-1-0.5-1.3c-0.4-0.4-0.8-0.5-1.3-0.5h-3.5
		v6.2h4.3c1.1,0,2.3-0.2,3-0.8l-0.3,1.7h-12v-0.2H113.4z"/>
	<path fill="#472302" d="M126.9,69.1c-1,1.6-1.5,3.3-1.5,5c0,1.9,0.7,3.5,2,5.1c0.7,0.9,1.7,1.5,2.8,2c1.1,0.5,2.4,0.7,3.7,0.7
		c1.3,0,2.5-0.3,3.6-0.8c2.1-1,3.2-2.7,3.2-5.1c0-0.9-0.3-1.8-0.9-2.8c-0.6-1-1.5-1.9-2.7-2.7l-6.5-4.3c-2.5-1.6-3.8-3.6-3.8-6.1
		c0-0.3,0-0.5,0-0.8c0.2-2,0.9-3.5,2.3-4.8s3.3-1.8,5.6-1.8c1.4,0,3.2,0.1,5.2,0.4h2.4l-0.5,5.6h-0.3c0-1.3-0.5-2.4-1.5-3.2
		c-1-0.8-2.3-1.2-3.9-1.2c-2,0-3.4,0.6-4.3,1.8c-0.4,0.6-0.6,1.3-0.6,2s0.2,1.3,0.6,1.8c0.4,0.5,1.1,1,2.1,1.6l7.1,4.6
		c1.4,0.9,2.6,2,3.4,3.3c1,1.5,1.4,3,1.4,4.6c0,1-0.2,2.1-0.6,3.2c-0.4,1.1-1.1,2.2-2.1,3.1c-0.9,1-2.2,1.7-3.7,2.4
		c-1.5,0.6-3.1,0.9-5,0.9c-1.8,0-3.5-0.3-4.9-0.9c-2.7-1.1-4.4-3.1-5.2-6c-0.2-0.6-0.2-1.2-0.2-1.9C124.3,72.7,125.4,71,126.9,69.1
		L126.9,69.1z"/>
	<g display="none">
		<g display="inline">
			<path fill="#FFFFFF" d="M-24.7,81.7c0.2,0.3,0.8,0.7,1.6,0.7c0.8,0,1.4-0.5,1.6-0.7c-0.7-0.1-1.3-0.2-1.6-0.3
				C-23.4,81.5-24,81.7-24.7,81.7L-24.7,81.7z"/>
			<path fill="#EC8E22" d="M-28.1,70.6l1.7,6.5c0.4-0.6,0.8-1.2,1.4-1.7l-2.1-5.8L-28.1,70.6L-28.1,70.6z"/>
			<path fill="#231F20" d="M-23.1,80c0.2,0,1.8-0.2,1.9-0.4c0.2-0.4,0.2-1,0.1-1.4c-0.1-0.4-1.2-0.6-1.9-0.6c-0.8,0-1.8,0.2-1.9,0.6
				c-0.1,0.4-0.2,1,0.1,1.4C-24.9,79.8-23.4,80-23.1,80L-23.1,80z"/>
			<path fill="#FFFFFF" d="M-25.5,78c0.2-0.8,1.9-0.9,2.4-0.9v0c0,0,0,0,0,0c0,0,0,0,0,0v0c0.5,0,2.1,0.2,2.4,0.9
				c0.2,0.5,0.2,1.3-0.1,1.8c-0.2,0.3-0.5,0.6-0.9,0.6c-1,0.2-1.2,0.3-1.2,0.3h-0.3c0,0-0.2-0.1-1.2-0.3c-0.4-0.1-0.7-0.3-0.9-0.6
				C-25.7,79.3-25.7,78.5-25.5,78L-25.5,78z M-26.1,80.8c1.1,0.7,2.7,0.3,3,0.2v0c0,0,0,0,0,0c0,0,0,0,0,0v0c0.3,0.1,1.9,0.5,3-0.2
				c0.3-0.2,0.4-0.6,0.4-1.2c-0.1-1.6-1.1-3.7-3.3-4.9c-2.3,1.2-3.2,3.3-3.3,4.9C-26.5,80.1-26.4,80.6-26.1,80.8L-26.1,80.8z"/>
			<path fill="#FFFFFF" d="M-18.9,79.9c0,0.7-0.2,1.2-0.6,1.5c-0.4,0.3-1,0.4-1.5,0.4l0,0c0,0-0.7,1.1-2.2,1.2v0c0,0,0,0,0,0
				c0,0,0,0,0,0v0c-1.5,0-2.1-1.1-2.2-1.2l0,0c-0.5,0-1.1-0.1-1.5-0.4c-0.4-0.3-0.6-0.8-0.6-1.5c-2.6-2.8-6.4-2.9-8.6-2.6
				c1.3,2,8.5,10.3,12.7,11.3h0.1c4.2-1,11.5-9.2,12.7-11.3C-12.5,77-16.3,77-18.9,79.9L-18.9,79.9z"/>
			<path fill="#FFFFFF" d="M-27.3,79.3c0-0.1,0.1-0.3,0.1-0.4l0,0c-2.7-4.3-5.1-5.9-7.8-7c-1.4-0.6-2.9-1-4-1.1l1.5,5.3
				c0.8-0.1,1.8-0.1,3.1,0.1C-32.3,76.3-29.4,77-27.3,79.3L-27.3,79.3z"/>
			<path fill="#EC8E22" d="M-19.8,77.1l1.7-6.5l-1-1l-2.1,5.8C-20.6,76-20.2,76.6-19.8,77.1L-19.8,77.1z"/>
			<path fill="#FFFFFF" d="M-19,78.8L-19,78.8c0,0.1,0.1,0.3,0.1,0.4c2.2-2.2,5-3,7.1-3.2c1.2-0.1,2.3-0.1,3.1-0.1l1.5-5.3
				c-1.1,0.2-2.5,0.5-4,1.1C-13.9,72.9-16.4,74.5-19,78.8L-19,78.8z"/>
			<path fill="#EC8E22" d="M-26.6,69.3l1.9,5.9c0.5-0.4,1-0.7,1.6-1v0c0,0,0,0,0,0c0,0,0,0,0,0v0c0.6,0.3,1.1,0.6,1.6,1l1.9-5.9
				c-1.6-0.5-3-1.8-3.5-2.3C-23.7,67.5-25.1,68.7-26.6,69.3L-26.6,69.3z"/>
			<path fill="#EC8E22" d="M-8.5,55.1c0.3-2.9,0.4-6.5-1.4-10.6c-3.3,5-1.6,9.2-1.6,9.2l-1.1-1.1c0,1.9,0.9,4.4,0.9,4.4
				c0.5,0.7,1.2,1.8,2.1,3.1C-9.3,59.3-8.7,57.6-8.5,55.1L-8.5,55.1z"/>
			<path fill="#FFFFFF" d="M-28.1,66.5c-0.1-0.1-0.2-0.2-0.3-0.3c-0.1,0-0.1,0.1-0.1,0.2c0,0.1,0.1,0.2,0.2,0.2
				C-28.3,66.6-28.2,66.6-28.1,66.5L-28.1,66.5z"/>
			<path fill="#FFFFFF" d="M-29.4,67.3c-0.6-0.4-0.8-1-0.8-1.4c-0.1,0-0.2,0-0.3,0.1c0.1,0.4,0.4,1.4,1.2,1.6c1,0.3,1.6-0.1,1.7-0.2
				c0,0,0,0,0-0.1c-0.2,0.1-0.6,0.3-1.1,0.3C-28.9,67.5-29.2,67.4-29.4,67.3L-29.4,67.3z"/>
			<polygon fill="#EC8E22" points="-15.3,66.1 -15.3,66.1 -15.3,66.1 -15.3,66.1 -15.3,66.1 			"/>
			<path fill="#EC8E22" d="M-34.8,53.7c0,0,1.7-4.2-1.6-9.2c-1.8,4.1-1.7,7.7-1.4,10.6c0.2,2.5,0.8,4.2,1.1,4.9
				c0.9-1.3,1.6-2.4,2.1-3.1c0,0,0.9-2.5,0.9-4.4L-34.8,53.7L-34.8,53.7z"/>
			<polygon fill="#EC8E22" points="-30.9,66.1 -30.9,66.1 -30.9,66.1 -30.9,66.1 -30.9,66.1 			"/>
			<path fill="#FFFFFF" d="M-17.6,66.4c0-0.1-0.1-0.2-0.1-0.2c-0.1,0.1-0.2,0.2-0.3,0.3c0,0.1,0.1,0.2,0.2,0.2
				C-17.7,66.6-17.6,66.5-17.6,66.4L-17.6,66.4z"/>
			<path fill="#EC8E22" d="M-11.9,56.7c0.1,0.1,0.1,0.2,0.2,0.2c-1.9-2.8-1.7-6.1-1.7-6.1l0.6,0.7c-0.7-3.1,2.4-7.8,2.4-7.8
				c-1.1,0.6-6.1,3.3-9.1,7.2l0,0.1l-0.1,0c0.3,0.7,0.9,2,1.2,2.5c0.5,0.8,2,2.8,2,2.8c-0.1-0.1-1.9-1.8-2.4-2.6
				c-0.4-0.6-1.1-2-1.4-2.6l-2.9,0.7v0l0,0l0,0v0l-2.9-0.7c-0.3,0.6-1,2-1.4,2.6c-0.5,0.8-2.3,2.5-2.4,2.6c0,0,1.5-2,2-2.8
				c0.3-0.6,0.9-1.8,1.2-2.5l-0.1,0l0-0.1c-3-3.9-8-6.7-9.1-7.2c0,0,3.1,4.7,2.4,7.8l0.6-0.7c0,0,0.2,3.4-1.7,6.1
				c0.1-0.1,0.1-0.2,0.2-0.2l-1,2.2c-1.5,2.3-3.7,5.7-4.6,10.1c1,0.2,2.5,0.6,4.1,1.3c2.7,1.2,6.4,3.5,8.9,7.9
				c0.1-0.2,0.2-0.4,0.3-0.7l-2-6.6c-0.7,0.4-2,1.1-2,1.1c0.5-0.7,1.4-1.3,1.9-1.6c0,0-0.1,0-0.1,0c-1.2,0-2.2-0.3-2.8-1
				c-1.2-1.2-0.9-3.1-0.9-3.2c0,0,0,0.1,0,0.2c0.1,0.6,0.6,2.9,3.2,2.7c1.5-0.1,2-0.9,2.1-1.6c0,0,0,0,0,0c-0.2,0.1-0.7,0.4-1.4,0.4
				c-0.2,0-0.4,0-0.7-0.1c-0.7-0.2-1.1-0.7-1.3-1.2l-2.5-1.2l0.5-0.2c1.8-0.7,3.4-0.6,4.6,0.1c0.8,0.5,1.3,1.2,1.6,1.8l-0.2-2.4
				l0.9,3.2c1.2-0.5,2.2-1.2,2.4-1.5l0.2-2.2l0.1,0.6l0.1-0.6l0.2,2.2c0.3,0.3,1.3,0.9,2.4,1.5l0.9-3.2l-0.2,2.4
				c0.3-0.6,0.8-1.4,1.6-1.8c1.2-0.7,2.7-0.8,4.6-0.1l0.5,0.2l-2.5,1.2c-0.2,0.5-0.6,1.1-1.3,1.2c-0.2,0.1-0.5,0.1-0.7,0.1
				c-0.7,0-1.2-0.2-1.4-0.4c0,0,0,0,0,0c0.1,0.7,0.6,1.5,2.1,1.6c2.6,0.2,3.1-2.1,3.2-2.7c0-0.1,0-0.2,0-0.2c0,0.1,0.3,2-0.9,3.2
				c-0.6,0.7-1.6,1-2.8,1c0,0-0.1,0-0.1,0c0.5,0.3,1.4,0.8,1.9,1.6c0,0-1.3-0.7-2-1.1l-2,6.6c0.1,0.2,0.2,0.4,0.3,0.7
				c2.4-4.4,6.1-6.7,8.9-7.9c1.7-0.7,3.1-1.1,4.1-1.3c-1-4.5-3.2-7.9-4.6-10.1L-11.9,56.7L-11.9,56.7z"/>
			<path fill="#FFFFFF" d="M-18.7,67.3c0.1,0.1,0.7,0.5,1.7,0.2c0.8-0.2,1.1-1.2,1.2-1.6c-0.1,0-0.2,0-0.3-0.1c0,0.4-0.2,1-0.8,1.4
				c-0.3,0.2-0.5,0.2-0.8,0.2C-18,67.5-18.4,67.3-18.7,67.3C-18.7,67.2-18.7,67.3-18.7,67.3L-18.7,67.3z"/>
			<path fill="#CCCED0" d="M-23.1,82.8v5.9c0,0-1.9-5.1-4.6-7.4c-2.7-2.2-6.8-1.6-6.8-1.6l-2.1-3.2l5.3,0.4l1.9,0.9
				c0,0-2.7-4-9.6-4.9l-1-2.9c0,0,9.4,1.9,13,8.5l-0.2,2.1l2.1,1C-25.1,81.6-24.5,82.6-23.1,82.8L-23.1,82.8z"/>
			<path fill="#D57128" d="M-33.2,65.5l2.1,1.4c0,0,0.2,0.8,1.2,1.3c0,0-2,0.2-2.7-1.7c0,0-0.8,3.2,1.6,4.5l-0.6,1.4l2.4-0.3
				l2.8,5.6l-1.6-6l0.7-0.7l2.5,4.6l-1.6-5.5c0,0,2.2-1,3.3-2.8v-2.1l-0.6-4.2c0,0-0.5,4.8-0.5,4.9c-0.1,0.1-1,0.8-1.1,0.8
				c-0.1,0-1.7-3.6-1.7-3.6l0.1,3.5l-0.7,1.2l-0.7,0l-1.1-0.1l-1.1-1.4L-33.2,65.5L-33.2,65.5z"/>
			<path fill="#D57128" d="M-40.3,67.9c0,0,7.8,1.4,12.8,7.7l0.2-0.1l0.9,2.2l-0.5,0.8l-3.4-4.2l-4.9-3.2l-5.8-2.1L-40.3,67.9
				L-40.3,67.9z"/>
			<path fill="#D57128" d="M-36.6,60.4c0,0,2.1-3,2.8-5.2c0.7-2.2,0.4-3.3,0.4-3.3s-0.6,0.4-0.7,0.4c-0.1,0,0.2-6.8-2.2-7.9
				C-36.3,44.4-40.6,50.1-36.6,60.4L-36.6,60.4z"/>
			<path fill="#D57128" d="M-32,45.6c0,0,2.8,2.9,3,5.4c0.2,2.4-2.1,6.7-2.1,6.7s4.1-2.4,5.6-6.5l-1.1-0.5
				C-26.6,50.6-30.7,46.3-32,45.6L-32,45.6z"/>
			<path fill="#CCCED0" d="M-23.1,82.6v-1.4v-0.9c0,0-1.8,0.6-2.7-0.3c-0.9-0.9,0.2-3.1,0.2-3.1s-1.4,1.9-1.1,3.1
				c0.3,1.2,1.6,1.6,1.6,1.6S-24.7,82.6-23.1,82.6L-23.1,82.6z"/>
			<path fill="#CCCED0" d="M-23.1,82.8v5.9c0,0,1.9-5.1,4.6-7.4c2.7-2.2,6.8-1.6,6.8-1.6l2.1-3.2l-5.3,0.4l-1.9,0.9
				c0,0,2.7-4,9.6-4.9l1-2.9c0,0-9.4,1.9-13,8.5l0.2,2.1l-2.1,1C-21.2,81.6-21.7,82.6-23.1,82.8L-23.1,82.8z"/>
			<path fill="#D57128" d="M-13.1,65.5l-2.1,1.4c0,0-0.2,0.8-1.2,1.3c0,0,2,0.2,2.7-1.7c0,0,0.8,3.2-1.6,4.5l0.6,1.4l-2.4-0.3
				l-2.8,5.6l1.6-6l-0.7-0.7l-2.5,4.6l1.6-5.5c0,0-2.2-1-3.3-2.8v-2.1l0.6-4.2c0,0,0.5,4.8,0.5,4.9c0.1,0.1,1,0.8,1.1,0.8
				c0.1,0,1.7-3.6,1.7-3.6l-0.1,3.5l0.7,1.2l0.7,0l1.1-0.1l1.1-1.4L-13.1,65.5L-13.1,65.5z"/>
			<path fill="#D57128" d="M-5.9,67.9c0,0-7.8,1.4-12.8,7.7l-0.2-0.1l-0.9,2.2l0.5,0.8l3.4-4.2l4.9-3.2l5.8-2.1L-5.9,67.9L-5.9,67.9
				z"/>
			<path fill="#D57128" d="M-9.6,60.4c0,0-2.1-3-2.8-5.2s-0.4-3.3-0.4-3.3s0.6,0.4,0.7,0.4c0.1,0-0.2-6.8,2.2-7.9
				C-10,44.4-5.7,50.1-9.6,60.4L-9.6,60.4z"/>
			<path fill="#D57128" d="M-14.2,45.6c0,0-2.8,2.9-3,5.4c-0.2,2.4,2.1,6.7,2.1,6.7s-4.1-2.4-5.6-6.5l1.1-0.5
				C-19.6,50.6-15.6,46.3-14.2,45.6L-14.2,45.6z"/>
			<path fill="#CCCED0" d="M-23.1,82.6v-1.4v-0.9c0,0,1.8,0.6,2.7-0.3c0.9-0.9-0.2-3.1-0.2-3.1s1.4,1.9,1.1,3.1
				c-0.3,1.2-1.6,1.6-1.6,1.6S-21.6,82.6-23.1,82.6L-23.1,82.6z"/>
			<path fill="#231F20" d="M-30.9,66.1L-30.9,66.1L-30.9,66.1L-30.9,66.1L-30.9,66.1L-30.9,66.1z M-28.6,66.4c0-0.1,0.1-0.2,0.1-0.2
				c0.1,0.1,0.2,0.2,0.3,0.3c0,0.1-0.1,0.2-0.2,0.2C-28.5,66.6-28.6,66.5-28.6,66.4L-28.6,66.4z M-27.6,67.2
				C-27.6,67.2-27.5,67.3-27.6,67.2c-0.1,0.2-0.6,0.6-1.7,0.3c-0.8-0.2-1.1-1.2-1.2-1.6c0.1,0,0.2,0,0.3-0.1c0,0.4,0.2,1,0.8,1.4
				c0.3,0.2,0.5,0.2,0.8,0.2C-28.2,67.5-27.8,67.3-27.6,67.2L-27.6,67.2z M-15.3,66.1L-15.3,66.1L-15.3,66.1L-15.3,66.1L-15.3,66.1
				L-15.3,66.1z M-18.1,66.5c0.1-0.1,0.2-0.2,0.3-0.3c0.1,0,0.1,0.1,0.1,0.2c0,0.1-0.1,0.2-0.2,0.2C-18,66.6-18.1,66.6-18.1,66.5
				L-18.1,66.5z M-17.6,67.5c0.3,0,0.5-0.1,0.8-0.2c0.6-0.4,0.8-1,0.8-1.4c0.1,0,0.2,0,0.3,0.1c-0.1,0.4-0.4,1.4-1.2,1.6
				c-1,0.3-1.6-0.1-1.7-0.2c0,0,0,0,0-0.1C-18.4,67.3-18,67.5-17.6,67.5L-17.6,67.5z M-10.4,70.4c-2.7,1.2-6.4,3.5-8.9,7.9
				c-0.1-0.2-0.2-0.4-0.3-0.7l2-6.6c0.7,0.4,2,1.1,2,1.1c-0.5-0.7-1.4-1.3-1.9-1.6c0,0,0.1,0,0.1,0c1.2,0,2.2-0.3,2.8-1
				c1.2-1.2,0.9-3.1,0.9-3.2c0,0,0,0.1,0,0.2c-0.1,0.6-0.6,2.9-3.2,2.7c-1.5-0.1-2-0.9-2.1-1.6c0,0,0,0,0,0c0.2,0.1,0.7,0.4,1.4,0.4
				c0.2,0,0.4,0,0.7-0.1c0.7-0.2,1.1-0.7,1.3-1.2l2.5-1.2l-0.5-0.2c-1.8-0.7-3.4-0.6-4.6,0.1c-0.8,0.5-1.3,1.2-1.6,1.8l0.2-2.4
				l-0.9,3.2c-1.2-0.5-2.2-1.2-2.4-1.5l-0.2-2.2l-0.1,0.6l-0.1-0.6l-0.2,2.2c-0.3,0.3-1.3,0.9-2.4,1.5l-0.9-3.2l0.2,2.4
				c-0.3-0.6-0.8-1.4-1.6-1.8c-1.2-0.7-2.7-0.8-4.6-0.1l-0.5,0.2l2.5,1.2c0.2,0.5,0.6,1.1,1.3,1.2c0.2,0.1,0.5,0.1,0.7,0.1
				c0.7,0,1.2-0.2,1.4-0.4c0,0,0,0,0,0c-0.1,0.7-0.6,1.5-2.1,1.6c-2.6,0.2-3.1-2.1-3.2-2.7c0-0.1,0-0.2,0-0.2c0,0.1-0.3,2,0.9,3.2
				c0.6,0.7,1.6,1,2.8,1c0,0,0.1,0,0.1,0c-0.5,0.3-1.4,0.8-1.9,1.6c0,0,1.3-0.7,2-1.1l2,6.6c-0.1,0.2-0.2,0.4-0.3,0.7
				c-2.4-4.4-6.1-6.7-8.9-7.9c-1.7-0.7-3.1-1.1-4.1-1.3c1-4.5,3.2-7.9,4.6-10.1l1-2.2c-0.1,0.1-0.1,0.2-0.2,0.2
				c-0.5,0.7-1.2,1.8-2.1,3.1c-0.3-0.7-0.9-2.4-1.1-4.9c-0.3-2.9-0.4-6.5,1.4-10.6c3.3,5,1.6,9.2,1.6,9.2l1.1-1.1
				c0,1.9-0.9,4.4-0.9,4.4c1.9-2.8,1.7-6.1,1.7-6.1l-0.6,0.7c0.7-3.1-2.4-7.8-2.4-7.8c1.1,0.6,6.1,3.3,9.1,7.2l0,0.1l0.1,0
				c-0.3,0.7-0.9,2-1.2,2.5c-0.5,0.8-2,2.8-2,2.8c0.1-0.1,1.9-1.8,2.4-2.6c0.4-0.6,1.1-2,1.4-2.6l2.9,0.7v0l0,0l0,0v0l2.9-0.7
				c0.3,0.6,1,2,1.4,2.6c0.5,0.8,2.3,2.5,2.4,2.6c0,0-1.5-2-2-2.8c-0.3-0.6-0.9-1.8-1.2-2.5l0.1,0l0-0.1c3-3.9,8-6.7,9.1-7.2
				c0,0-3.1,4.7-2.4,7.8l-0.6-0.7c0,0-0.2,3.4,1.7,6.1c0,0-0.9-2.5-0.9-4.4l1.1,1.1c0,0-1.7-4.2,1.6-9.2c1.8,4.1,1.7,7.7,1.4,10.6
				c-0.2,2.5-0.8,4.2-1.1,4.9c-0.9-1.3-1.6-2.4-2.1-3.1c-0.1-0.1-0.1-0.2-0.2-0.2l1,2.2c1.5,2.3,3.7,5.7,4.6,10.1
				C-7.3,69.3-8.7,69.7-10.4,70.4L-10.4,70.4z M-8.8,76c-0.8-0.1-1.8-0.1-3.1,0.1c-2.1,0.2-5,1-7.1,3.2c0-0.1-0.1-0.3-0.1-0.4l0,0
				c2.7-4.3,5.1-5.9,7.8-7c1.4-0.6,2.9-1,4-1.1L-8.8,76L-8.8,76z M-21.5,81.7c-0.2,0.3-0.8,0.7-1.6,0.7c-0.8,0-1.4-0.5-1.6-0.7
				c0.7-0.1,1.3-0.2,1.6-0.3C-22.8,81.5-22.2,81.7-21.5,81.7L-21.5,81.7z M-26.5,79.6c0.1-1.6,1.1-3.7,3.3-4.9
				c2.3,1.2,3.2,3.3,3.3,4.9c0,0.6-0.1,1-0.4,1.2c-1.1,0.7-2.7,0.3-3,0.2v0c0,0,0,0,0,0c0,0,0,0,0,0v0c-0.3,0.1-1.9,0.5-3-0.2
				C-26.4,80.6-26.5,80.1-26.5,79.6L-26.5,79.6z M-25.1,75.5c-0.5,0.5-1,1.1-1.4,1.7l-1.7-6.5l1-1L-25.1,75.5L-25.1,75.5z
				 M-19.1,69.6l1,1l-1.7,6.5c-0.4-0.6-0.8-1.2-1.4-1.7L-19.1,69.6L-19.1,69.6z M-21.5,75.2c-0.5-0.4-1-0.7-1.6-1v0c0,0,0,0,0,0
				c0,0,0,0,0,0v0c-0.6,0.3-1.1,0.6-1.6,1l-1.9-5.9c1.6-0.5,3-1.8,3.5-2.3c0.6,0.5,1.9,1.8,3.5,2.3L-21.5,75.2L-21.5,75.2z
				 M-23.1,88.5h-0.1c-4.2-1-11.5-9.2-12.7-11.3c2.2-0.3,5.9-0.2,8.6,2.6c0,0.7,0.2,1.2,0.6,1.5c0.4,0.3,1,0.4,1.5,0.4l0,0
				c0,0,0.7,1.1,2.2,1.2v0c0,0,0,0,0,0c0,0,0,0,0,0v0c1.5,0,2.1-1.1,2.2-1.2l0,0c0.5,0,1.1-0.1,1.5-0.4c0.4-0.3,0.6-0.8,0.6-1.5
				c2.6-2.8,6.4-2.9,8.6-2.6C-11.6,79.3-18.8,87.5-23.1,88.5L-23.1,88.5z M-37.5,76l-1.5-5.3c1.1,0.2,2.5,0.5,4,1.1
				c2.7,1.2,5.2,2.8,7.8,7l0,0c0,0.1-0.1,0.3-0.1,0.4c-2.2-2.2-5-3-7.1-3.2C-35.6,75.9-36.7,75.9-37.5,76L-37.5,76z M-8.9,61.2
				c0.2-0.6,0.9-2.8,1.2-5.7c0.3-3.2,0.2-8-2.2-12.6l-0.1-0.2l-0.2,0.1c-0.1,0-6.4,3.1-9.8,7.5l-3.2,1l-3.2-1
				c-3.4-4.4-9.7-7.5-9.8-7.5l-0.2-0.1l-0.1,0.2c-2.3,4.6-2.5,9.4-2.2,12.6c0.3,2.9,0.9,5.1,1.2,5.7c-1.3,2.2-2.9,4.9-4.2,7.8l0,0.1
				l0.5,1.3l0.7,0.1l1.5,6l0,0c0,0,0.4,0.5,1,1.2l0.6-0.2c2.3,2.8,7.6,9.4,13.9,11.8h0.5c6.4-2.4,11.6-9,13.9-11.8l0.6,0.2
				c0.6-0.7,1-1.2,1-1.2l0,0l1.5-6l0.7-0.1l0.5-1.3l0-0.1C-6,66.1-7.5,63.4-8.9,61.2L-8.9,61.2z"/>
			<path fill="#231F20" d="M-25.1,78.1c0.1-0.4,1.2-0.6,1.9-0.6c0.8,0,1.8,0.2,1.9,0.6c0.1,0.4,0.2,1-0.1,1.4
				c-0.1,0.2-1.6,0.4-1.9,0.4c-0.2,0-1.8-0.2-1.9-0.4C-25.3,79.2-25.2,78.5-25.1,78.1L-25.1,78.1z M-24.5,80.5
				c1,0.2,1.2,0.3,1.2,0.3h0.3c0,0,0.2-0.1,1.2-0.3c0.4-0.1,0.7-0.3,0.9-0.6c0.3-0.6,0.3-1.3,0.1-1.8c-0.2-0.8-1.9-0.9-2.4-0.9v0
				c0,0,0,0,0,0c0,0,0,0,0,0v0c-0.5,0-2.1,0.2-2.4,0.9c-0.2,0.5-0.2,1.3,0.1,1.8C-25.2,80.1-24.9,80.4-24.5,80.5L-24.5,80.5z"/>
		</g>
		<path display="inline" fill="#564739" d="M-37.2,77.6c0,0,5.7-1.9,9.9,2.3c0,0-0.3,1.9,2.1,1.9c0,0,0.4,1.1,2,1.2
			c1.6,0.1,2.3-1.2,2.3-1.2s1.1,0,1.7-0.6c0.5-0.6,0.4-1.3,0.4-1.3s3.5-4.3,10.5-2.2l-2.7,10.6l-7.9,4.2l-7.3,1l-9.2-3.6l-2.6-5
			L-37.2,77.6z"/>
		<path display="inline" fill="#564739" d="M-37.4,77.6c0,0,1.1-0.3,1.8-0.3c0.8,0,0.4,0.9,0.4,0.9l-1.9,0.1L-37.4,77.6z"/>
	</g>
</g>
<g id="Layer_3">
</g>
<g id="Layer_2">
</g>
</svg>
